PathFileType	4	(X/Y/Z)	/Users/itak/Documents/Research/Walk-IL/dataset/trc/00036_00004.trc
DataRate	CameraRate	NumFrames	NumMarkers	Units	OrigDataRate	OrigDataStartFrame	OrigNumFrames
100.000000	100.000000	4	53	mm	100.000000	272	726
Frame#	Time	RPSI			LPSI			L3			STRN			T10			C7			CLAV			RBAK			LBAK			LSHO			LUPA			LAEL			LAOL			LWTS			LWPS			LFRA			LIFD			LHPS			LHTS			RSHO			RUPA			RAEL			RAOL			RWTS			RWPS			RFRA			RIFD			RHTS			RHPS			RBHD			LFHD			RFHD			LBHD			LHIP			RHIP			RASI			LASI			LKNE			LTHI			LANK			LTIP			LTOE			LMT1			LMT5			LHEE			RKNE			RTHI			RANK			RTIP			RTOE			RMT1			RMT5			RHEE			
		X1	Y1	Z1	X2	Y2	Z2	X3	Y3	Z3	X4	Y4	Z4	X5	Y5	Z5	X6	Y6	Z6	X7	Y7	Z7	X8	Y8	Z8	X9	Y9	Z9	X10	Y10	Z10	X11	Y11	Z11	X12	Y12	Z12	X13	Y13	Z13	X14	Y14	Z14	X15	Y15	Z15	X16	Y16	Z16	X17	Y17	Z17	X18	Y18	Z18	X19	Y19	Z19	X20	Y20	Z20	X21	Y21	Z21	X22	Y22	Z22	X23	Y23	Z23	X24	Y24	Z24	X25	Y25	Z25	X26	Y26	Z26	X27	Y27	Z27	X28	Y28	Z28	X29	Y29	Z29	X30	Y30	Z30	X31	Y31	Z31	X32	Y32	Z32	X33	Y33	Z33	X34	Y34	Z34	X35	Y35	Z35	X36	Y36	Z36	X37	Y37	Z37	X38	Y38	Z38	X39	Y39	Z39	X40	Y40	Z40	X41	Y41	Z41	X42	Y42	Z42	X43	Y43	Z43	X44	Y44	Z44	X45	Y45	Z45	X46	Y46	Z46	X47	Y47	Z47	X48	Y48	Z48	X49	Y49	Z49	X50	Y50	Z50	X51	Y51	Z51	X52	Y52	Z52	X53	Y53	Z53	

273	2.72	-534.33154296875	1029.767456054688	190.1968994140625	-696.9849243164062	1040.748046875	202.8025207519531	-623.1723022460938	1105.496459960938	203.0017395019531	-588.2329711914062	1277.411743164062	-38.02235412597656	-629.8369140625	1249.731079101562	215.2613525390625	-615.5494995117188	1512.556274414062	140.0085144042969	-586.2647705078125	1405.542602539062	-4.110784530639648	-559.7271118164062	1374.406494140625	220.4431457519531	-716.5178833007812	1482.480346679688	142.5782012939453	-765.452392578125	1487.607543945312	27.74517822265625	-870.0586547851562	1382.784423828125	41.82445907592773	-944.1700439453125	1179.447265625	26.49319267272949	-875.8507080078125	1144.126342773438	99.41497039794922	-893.9187622070312	945.6008911132812	-100.4913482666016	-963.2352905273438	924.381591796875	-48.68727874755859	-962.9859619140625	1071.875854492188	-13.15639400482178	-886.9671630859375	769.28125	-166.4600830078125	-959.0695190429688	844.3543090820312	-102.2754211425781	-908.326171875	861.901123046875	-148.0249481201172	-432.279541015625	1473.9345703125	105.5557556152344	-375.1865539550781	1404.994384765625	145.5447845458984	-382.4292602539062	1153.935180664062	239.6848754882812	-474.7169494628906	1128.523681640625	214.119384765625	-384.7284240722656	877.669921875	148.1160888671875	-345.8324279785156	870.4729614257812	231.8529663085938	-367.7866821289062	1076.112915039062	245.6829071044922	-413.1714172363281	693.6572875976562	144.2519683837891	-373.1916198730469	765.8056030273438	134.3898620605469	-344.5782165527344	764.0015258789062	204.4411773681641	-631.6298828125	1694.476318359375	10.09572696685791	-422.7055053710938	1653.47607421875	-37.20649719238281	-493.5249633789062	1666.789306640625	-104.6012420654297	-524.3795166015625	1671.121948242188	103.5370635986328	-814.7197265625	949.9461059570312	115.6981964111328	-448.1889038085938	908.9431762695312	65.49794769287109	-524.2159423828125	952.9208984375	-27.21977424621582	-756.3687133789062	985.3173828125	-10.32406330108643	-804.6849365234375	507.1622619628906	132.8802185058594	-823.4601440429688	648.3787231445312	137.0167388916016	-818.2286376953125	46.63079833984375	332.238037109375	-826.7509765625	292.45751953125	265.5623779296875	-757.7254028320312	41.32468032836914	112.0471115112305	-742.819580078125	51.46584320068359	171.5797119140625	-844.968017578125	36.03087997436523	210.2737274169922	-766.0230712890625	64.15011596679688	400.46484375	-494.4370422363281	523.1522216796875	-114.9685974121094	-448.3400268554688	762.5933227539062	3.04312801361084	-590.699951171875	43.55797576904297	-200.3135986328125	-510.8464965820312	400.4215087890625	-134.9194641113281	-523.583740234375	119.6708145141602	-409.6150207519531	-578.737060546875	108.1267013549805	-369.1810913085938	-503.8455200195312	81.11186218261719	-314.4751281738281	-656.3104248046875	37.04846954345703	-174.3676910400391	
274	2.73	-533.2633056640625	1027.671142578125	181.1610260009766	-695.8687744140625	1039.102905273438	193.5378723144531	-622.0017700195312	1103.858276367188	193.7066497802734	-585.7191162109375	1275.308471679688	-47.0278434753418	-628.7625732421875	1247.94873046875	206.1055145263672	-613.6423950195312	1510.817504882812	130.6800384521484	-583.59228515625	1403.444458007812	-13.17196083068848	-558.4788818359375	1372.472778320312	211.5964813232422	-714.6038208007812	1480.8955078125	132.5982666015625	-762.788330078125	1485.949340820312	17.44454193115234	-867.6629028320312	1381.23388671875	30.83600997924805	-941.85693359375	1178.001708984375	14.97838497161865	-874.0401000976562	1142.516479492188	88.56105041503906	-889.7687377929688	944.7643432617188	-112.2604064941406	-959.7456665039062	923.2366943359375	-61.33173370361328	-960.072021484375	1070.546020507812	-25.1636848449707	-881.8709716796875	768.7455444335938	-178.9130706787109	-954.8214111328125	843.413818359375	-115.2075424194336	-903.563720703125	861.247802734375	-160.2545471191406	-430.0517883300781	1471.51025390625	97.40499877929688	-373.4052124023438	1402.416137695312	137.8130340576172	-382.0378723144531	1151.418579101562	232.1865386962891	-474.258056640625	1126.337280273438	206.0989379882812	-384.92626953125	875.338623046875	140.13720703125	-346.3396606445312	867.8367919921875	224.0055694580078	-367.6603088378906	1073.5107421875	238.1807250976562	-413.9483337402344	691.4686889648438	135.7034606933594	-373.6891784667969	763.48486328125	126.2083740234375	-345.4012451171875	761.3560791015625	196.3100738525391	-628.426025390625	1692.33203125	0.232600063085556	-419.1235961914062	1651.178466796875	-44.95063400268555	-489.2470397949219	1664.426879882812	-113.0408325195312	-522.1448974609375	1669.007568359375	94.77696990966797	-813.6903686523438	948.7274169921875	106.5599899291992	-447.3729553222656	906.5800170898438	56.50791168212891	-523.1939697265625	950.8035888671875	-36.26980590820312	-755.3037109375	983.8694458007812	-19.66639518737793	-804.311279296875	506.219970703125	127.2579879760742	-822.9151000976562	647.6168823242188	130.1948089599609	-818.45068359375	47.66765594482422	332.0030822753906	-826.7374267578125	292.9509887695312	262.5152893066406	-757.6948852539062	41.2902717590332	112.0222930908203	-742.9271850585938	51.60747528076172	171.4856109619141	-844.9921875	35.99956893920898	210.1466217041016	-766.3346557617188	65.93260955810547	400.1525268554688	-494.1513366699219	521.1378173828125	-122.38720703125	-448.2274780273438	760.0466918945312	-5.686605453491211	-584.680419921875	43.71109390258789	-220.8641204833984	-509.2041320800781	399.3003540039062	-144.2860412597656	-512.1785278320312	125.4106216430664	-426.3539123535156	-568.434814453125	112.6393890380859	-387.82080078125	-495.0077514648438	84.42982482910156	-331.6305236816406	-650.9364013671875	36.13430786132812	-196.7320098876953	
275	2.74	-532.02978515625	1025.716674804688	171.9753875732422	-694.561767578125	1037.558715820312	184.0787811279297	-620.6672973632812	1102.2705078125	184.2084808349609	-583.0369873046875	1273.300903320312	-56.14093780517578	-627.5601196289062	1246.211791992188	196.7861633300781	-611.4725341796875	1509.086181640625	121.2726974487305	-580.7258911132812	1401.435913085938	-22.3330078125	-557.048095703125	1370.577026367188	202.6357269287109	-712.4691772460938	1479.383666992188	122.5488662719727	-759.927490234375	1484.381103515625	7.074597835540771	-865.0306396484375	1379.76220703125	19.84854316711426	-939.3158569335938	1176.614135742188	3.549555063247681	-872.0072021484375	1141.079223632812	77.85430145263672	-885.4468994140625	943.8513793945312	-123.7100219726562	-956.0232543945312	922.0728149414062	-73.60752868652344	-956.9309692382812	1069.238647460938	-36.97292327880859	-876.6317749023438	768.0728149414062	-190.8617553710938	-950.3917846679688	842.411376953125	-127.6997375488281	-898.6113891601562	860.4700927734375	-172.0591278076172	-427.6230163574219	1469.149047851562	89.17975616455078	-371.4370422363281	1399.87451171875	129.9924774169922	-381.4467468261719	1148.932983398438	224.5105285644531	-473.5972595214844	1124.1435546875	197.8647155761719	-384.8952026367188	873.0247192382812	131.9913330078125	-346.6698303222656	865.2320556640625	216.0126342773438	-367.3629760742188	1070.935913085938	230.49951171875	-414.4881591796875	689.3038330078125	126.993782043457	-373.9426574707031	761.1932983398438	117.8851318359375	-346.0184020996094	758.7561645507812	188.0504913330078	-624.99853515625	1690.2978515625	-9.69337272644043	-415.3486328125	1648.95263671875	-52.75201416015625	-484.7322692871094	1662.114990234375	-121.53076171875	-519.7041015625	1666.9951171875	85.95856475830078	-812.5369873046875	947.5488891601562	97.24502563476562	-446.3786010742188	904.366943359375	47.37795257568359	-522.0201416015625	948.7732543945312	-45.45520782470703	-754.1265869140625	982.4539794921875	-29.08538436889648	-803.9611206054688	505.3090209960938	121.2366180419922	-822.3123779296875	646.8934936523438	123.0226287841797	-818.7518310546875	48.87319183349609	331.7173767089844	-826.7365112304688	293.5467224121094	259.1782531738281	-757.6484375	41.2464599609375	111.9894485473633	-743.052001953125	51.78891372680664	171.3686065673828	-845.0222778320312	35.96569442749023	209.9862365722656	-766.7503051757812	67.99407196044922	399.7712707519531	-493.6912231445312	519.3433227539062	-130.1065521240234	-447.9645690917969	757.7218017578125	-14.64803791046143	-579.12841796875	43.90087127685547	-239.3579711914062	-507.5125122070312	398.21435546875	-153.5731811523438	-501.5900573730469	130.2347259521484	-441.2359924316406	-558.8380126953125	116.4712448120117	-404.5098571777344	-486.8189392089844	87.25421142578125	-346.8966064453125	-645.9652099609375	35.4420051574707	-216.9466094970703	
276	2.75	-530.6646118164062	1023.920532226562	162.6502990722656	-693.0923461914062	1036.123413085938	174.4069976806641	-619.2069091796875	1100.7587890625	174.5404205322266	-580.1698608398438	1271.409790039062	-65.36589050292969	-626.2410278320312	1244.542236328125	187.306396484375	-609.042724609375	1507.390258789062	111.7777252197266	-577.6455078125	1399.541748046875	-31.59484672546387	-555.4360961914062	1368.7470703125	193.559814453125	-710.1080932617188	1477.968383789062	112.4192733764648	-756.869140625	1482.9267578125	-3.380120038986206	-862.1551513671875	1378.397216796875	8.84810733795166	-936.53662109375	1175.311767578125	-7.7960524559021	-869.7569580078125	1139.846923828125	67.27128601074219	-880.9780883789062	942.8784790039062	-134.8385467529297	-952.073974609375	920.9087524414062	-85.505126953125	-953.5656127929688	1067.980712890625	-48.58453750610352	-871.2750854492188	767.26904296875	-202.287841796875	-945.7865600585938	841.36328125	-139.7321319580078	-893.5010375976562	859.58349609375	-183.435546875	-424.9972229003906	1466.877563476562	80.87136077880859	-369.2830505371094	1397.400390625	122.0770568847656	-380.6626281738281	1146.51318359375	216.6472625732422	-472.7430725097656	1121.971313476562	189.4147644042969	-384.6277770996094	870.7503662109375	123.6872634887695	-346.8216247558594	862.6884155273438	207.8854064941406	-366.9001159667969	1068.420532226562	222.6341705322266	-414.7770690917969	687.1818237304688	118.1436920166016	-373.9313659667969	758.9570922851562	109.4361877441406	-346.4255981445312	756.2249755859375	179.6850891113281	-621.3505859375	1688.3994140625	-19.67993545532227	-411.3809814453125	1646.82275390625	-60.60772323608398	-479.9872741699219	1659.886352539062	-130.0679168701172	-517.0636596679688	1665.105834960938	77.09109497070312	-811.2470703125	946.4166870117188	87.71510314941406	-445.1846313476562	902.3563842773438	38.12482452392578	-520.6586303710938	946.87255859375	-54.77502059936523	-752.8192749023438	981.0780639648438	-38.62588119506836	-803.62353515625	504.4392395019531	114.7923202514648	-821.63818359375	646.2152709960938	115.4660186767578	-819.1272583007812	50.27494812011719	331.3725891113281	-826.7474975585938	294.2656555175781	255.5320434570312	-757.587646484375	41.1937255859375	111.9461212158203	-743.1973266601562	52.01559448242188	171.2216339111328	-845.0653076171875	35.93282699584961	209.7799224853516	-767.2758178710938	70.37317657470703	399.3040161132812	-492.9949035644531	517.791015625	-138.1565704345703	-447.4700622558594	755.6793212890625	-23.83322525024414	-574.2430419921875	43.97639846801758	-255.6846618652344	-505.768310546875	397.1377258300781	-162.8170471191406	-492.0770568847656	133.8740539550781	-454.3064575195312	-550.2010498046875	119.3660202026367	-419.2452392578125	-479.5246276855469	89.36569213867188	-360.2782897949219	-641.5963134765625	34.83663177490234	-234.8689727783203	
